<svg height="31" viewBox="0 0 34 31" width="34" xmlns="http://www.w3.org/2000/svg"><g fill="#13e57e" fill-rule="evenodd"><path d="m0 15.5c0-8.56041405 7.49720417-15.5 16.7454752-15.5 9.2482711 0 16.7454752 6.93958595 16.7454752 15.5 0 8.560414-7.4972041 15.5-16.7454752 15.5-9.24827103 0-16.7454752-6.939586-16.7454752-15.5zm19.2004382-3.4423666h4.7232984v-1.2543851h-4.7232984zm4.3069686 1.0529931c-.5683898-.2330395-1.2070419-.3500387-1.9170048-.3500387-1.1944575 0-2.1644955.3462026-2.9143086 1.0338128-.7477158.6895282-1.122098 1.6801856-1.122098 2.9719722 0 1.3771384.4131838 2.3725909 1.2447947 2.9834803.8274161.6118484 1.7848698.9168136 2.8702637.9168136 1.3140081 0 2.3364806-.3625058 3.0663686-1.0865584.4677156-.4564888.7319854-.9062645.7896633-1.3474092h-2.1760311c-.1258427.2186543-.2726593.3893581-.4394009.5130704-.3030714.2272854-.6984274.3414076-1.1818733.3414076-.4593261 0-.8504874-.093983-1.1755812-.2809899-.5369291-.3001702-.8179779-.8247487-.8536334-1.5718175h5.9387297c.0094382-.6434958-.0136329-1.138345-.0713109-1.4797525-.0985768-.5840372-.3146069-1.0980665-.6512363-1.5411292-.3691387-.5025213-.837903-.8707811-1.4073415-1.1028615zm-7.5212025-1.7032019c-.561049-.6981593-1.5122105-1.0558701-2.8566307-1.0740913h-5.32629491v10.0791957h4.96659441c.5600002 0 1.078053-.0441145 1.5573041-.1352204.4792512-.092065.8934837-.2598917 1.2447947-.5063573.3125095-.2148183.5725846-.4795051.7802251-.7931013.3282399-.473751.4918355-1.0098376.4918355-1.6073009 0-.5792421-.1436705-1.0721732-.4289141-1.4768755-.2883896-.4056612-.7120603-.7019953-1.274158-.8899613.3701875-.1726218.6501876-.3644238.8410492-.573488.3408241-.3740139.5096632-.8698221.5096632-1.4845476 0-.5974632-.1688391-1.1095746-.5054685-1.5382521z"/><path d="m10.0002836 12.0835267h2.399402c.5274909 0 .9616484.0527455 1.3035213.1572776.3943073.1515236.591461.4612839.591461.9321578 0 .4219644-.1499627.7173395-.4477905.8842073-.2999253.1668677-.6889892.2503016-1.166143.2503016h-2.6804508zm10.3191065 2.7111214c.300974-.283867.726742-.4258005 1.2720606-.4258005.5033711 0 .9238956.1333024 1.2657685.4008662.3376781.2694819.5285396.660758.5673411 1.1786234h-3.67356c.0776031-.4852591.2674159-.8698221.5683898-1.1536891zm-10.3191065 1.1805414h2.7140089c.4719104.003836.8400004.0613766 1.1021729.1707038.4687643.196597.7015734.5562258.7015734 1.0817633 0 .6195205-.2411987 1.0376489-.7246446 1.2582212-.2653185.1179582-.638652.1774169-1.1168545.1774169h-2.6762561z"/></g></svg>