<svg height="31" viewBox="0 0 33 31" width="33" xmlns="http://www.w3.org/2000/svg"><g fill="none" fill-rule="evenodd"><path d="m0 15.5c0-8.56041405 7.38730118-15.5 16.5-15.5 9.1126988 0 16.5 6.93958595 16.5 15.5 0 8.560414-7.3873012 15.5-16.5 15.5-9.11269882 0-16.5-6.939586-16.5-15.5zm25.3-.0114603c0-.5594779-.0605872-1.1189557-.1795915-1.6619556-.1160421-.5312713-.2879181-1.0536574-.5130791-1.5514557-.2199945-.4901086-.4928605-.9625436-.811675-1.4027334-.3140957-.4377343-.6759309-.8472943-1.0734157-1.22176577-.3983114-.37246829-.8366469-.71062348-1.302021-1.00648504-.4700929-.29870483-.9732866-.55466369-1.4949424-.76264238-.5315756-.21082196-1.0880544-.37243597-1.6531096-.48048021-.5801074-.11124291-1.1765413-.16768827-1.7725274-.16768827-.5964338 0-1.1928677.05644536-1.7721139.16768827-.5659509.10801193-1.1223952.26962594-1.653523.48048021-.5216558.208011-1.0252973.46393755-1.4953902.76264238-.4653741.29586156-.9036751.63401675-1.3011599 1.00648504-.39789817.37447147-.75973334.78403147-1.07427677 1.22176577-.31712673.4401898-.59044059.9125925-.81129609 1.4027334-.22519546.4977983-.3974848 1.0201844-.51394027 1.5514557-.11779879.5429999-.17793817 1.1024777-.17793817 1.6619556 0 .5590578.06017383 1.1173402.17790372 1.6615355.11645547.531239.28874481 1.0528497.51394027 1.5514558.22085551.4897531.49416936.9617681.8112961 1.4019256.31454343.4373788.67637859.8477143 1.07427671 1.2217658.3974848.3724359.8357859.7114312 1.30116 1.0077128.4700929.2974447.9737344.5534036 1.4953901.7610269.5311279.2104019 1.0876066.3716282 1.653523.4804479.5792463.1120829 1.1756801.1693037 1.772114.1693037.5959861 0 1.1924544-.0572208 1.7725273-.1693037.5650553-.1088197 1.1215685-.270046 1.6531097-.4804479.5216902-.2076233 1.0248494-.4635822 1.4949424-.7610269.4653741-.2963139.9036751-.6352769 1.302021-1.0077128.3974848-.3740515.75932-.784387 1.0734156-1.2217658.318849-.4401575.591715-.9121402.8117095-1.4019256.225161-.4986061.397037-1.0201845.5130791-1.5514558.1190043-.5441953.1795915-1.1024777.1795915-1.6615355z" fill="#09e579"/><path d="m18.1166161 13.7996054c2.9671517-1.1367262 4.1724882-2.7704429 4.1866792-2.7893442 1.0544714 1.2007644 1.6917559 2.7345143 1.7089435 4.4056782-.10874-.0209368-2.6521949-.5336623-5.2338828-.2289155-.0528372-.1209036-.1069833-.2418395-.1624383-.3651986-.1559629-.343874-.3248767-.6860356-.4993016-1.0222199zm2.582549 7.5352776c-.0765003-.4248426-.4770162-2.4942903-1.4627716-5.0353654 2.425725-.3648108 4.5282956.2595776 4.682984.30633-.3343143 1.9646991-1.532762 3.6608708-3.2202124 4.7290354zm-2.8709149-4.7088417c1.0575025 2.5781344 1.4940813 4.7370482 1.6053702 5.3529715-.901953.3598997-1.8932883.5586701-2.9340165.5586701-1.7429054 0-3.3431434-.5615134-4.6189789-1.4922193.0156668-.0318993 1.4636829-2.9540935 5.8977846-4.4041074.016361-.005622.0331008-.010113.0498406-.0153149zm3.634506-6.4284058c-.0184965.0257833-1.0888811 1.554299-3.9245597 2.5515111-1.2852467-2.2137113-2.6968689-3.97033483-2.8094322-4.11223982.5676386-.12817329 1.1602148-.19751029 1.7708396-.19751029 1.9027604 0 3.6400514.66383877 4.9631523 1.75823901zm-4.7564878 4.062321c.2152756.3958284.4211479.7973109.6097638 1.1979534-.0988201.026591-.1985358.0540221-.2964948.0846519-4.0555849 1.2301986-6.1122071 4.6527841-6.1096238 4.6564351-1.1971732-1.2483891-1.92552793-2.8994239-1.92552793-4.7104572 0-.075799.00385774-.1491424.00602772-.2249091.13319529.0048142 3.84633711.0830041 7.71585501-1.0036741zm-3.4131682-5.14783602c.100129.12539464 1.4898102 1.89448972 2.7905224 4.06228872-3.6082595.8993132-6.73998507.8622215-6.93810747.860606.48772831-2.1831139 2.05186887-3.9945673 4.14758507-4.92289472z" fill="#1ce683"/></g></svg>