<svg height="171" viewBox="0 0 240 171" width="240" xmlns="http://www.w3.org/2000/svg"><g fill="none" fill-rule="evenodd"><g fill="#00e676" transform="translate(50 43)"><path d="m129.651147 80.5179259c0 .3887408-.048644.7727408-.147119 1.1306667-.037966.1386667-.073559.2477037-.112712.3508148-.043898.1161482-.096102.2441482-.163729.3982222-.065254.1256297-.132881.2500741-.200508.3626667-.005932.0094815-.015424.0225185-.02017.0296296-.080678.128-.148305.2287408-.213559.3140741-.822203 1.101037-2.08339 1.7291852-3.459661 1.7291852h-42.078305c-2.3859322 0-4.3245763-1.9365926-4.3245763-4.3152593v-64.5949629c0-2.3798519 1.9386441-4.3164445 4.3210169-4.3164445h42.0818644c1.152034 0 2.234068.4503704 3.050339 1.2622222.147119.1505186.289492.3093334.411695.4752593.007119.0082963.011864.0142222.017797.0225185.072372.0971852.145932.2062222.215932.3247408.005932.0047407.008305.0118518.015423.0201481.065255.1125926.12695.2299259.185085.3472593.023729.0497777.047458.0995555.068814.1493333l.021356.0533333c.023729.0533334.041525.1042963.062881.1576297.002373.0142222.008305.026074.014237.0402963.033221.0912592.068814.2002963.10678.3377777.098475.3567408.147119.7371852.147119 1.1282963zm10.198644-56.3626666c0-.082963-.004746-.165926-.005932-.2488889-.00356-.0521482-.009492-.101926-.011865-.1517037-.007119-.0711111-.011864-.1422223-.018983-.2085926-.005932-.050963-.014237-.101926-.020169-.1505185-.008305-.0722963-.017797-.1422223-.028475-.2133334-.007119-.0426666-.01661-.0912592-.024915-.1351111-.013051-.0734815-.026102-.1493333-.042712-.224-.009492-.0379259-.017797-.0758518-.027288-.1173333-.017797-.0794074-.037966-.1588148-.061695-.2382222-.008305-.032-.017797-.0616297-.027288-.0936297-.026102-.0888889-.052204-.1765926-.081865-.2654815-.005932-.0213333-.015423-.0414814-.021356-.0616296-.034406-.0995555-.07-.1979259-.107966-.2974815-.003559-.0094814-.005932-.0142222-.013051-.0237037-.359491-.9019259-.912372-1.7374815-1.639661-2.4557037-.090169-.0936296-.18983-.186074-.282372-.2678518-1.112882-.9955556-2.489153-1.6616297-3.984068-1.9460741-.011865 0-.023729-.0023704-.034407-.0047407-.10322-.0213334-.208814-.0367408-.31322-.0533334-.029661-.0047407-.062882-.0094815-.091356-.013037-.085424-.0118519-.173221-.0225185-.259831-.032-.04983-.0059259-.097288-.0118519-.145932-.0142222-.004746 0-.004746 0-.008305-.0035556v-1.0097778c0-.6542222-.084237-1.2918518-.252712-1.9045926-.061695-.224-.121017-.4124444-.186271-.5854814-.040339-.1185186-.087797-.2394074-.136441-.3543704l-.021356-.0485926c-.039152-.0841482-.074746-.1694815-.115085-.2512593-.005932-.0106666-.009491-.0237037-.014237-.0355555-.110339-.2085926-.211186-.3946667-.309661-.5677037-.015424-.0213334-.030847-.0438519-.045085-.0687408-.115084-.1884444-.236101-.365037-.359491-.5262222-.010678-.0189629-.021356-.032-.035593-.0474074-.198136-.2583704-.415255-.5084444-.653729-.7478518-1.370339-1.36888893-3.195085-2.12622227-5.133729-2.12622227h-42.0818644c-4.0054237 0-7.2681355 3.25925927-7.2681355 7.26162967v74.1025185.0071111c.0035593 4.0557037 3.6138983 7.3588148 8.0523728 7.3588148.0023729 0 .0094916-.0023704.010678-.0023704h2.5650847c.8127119 0 1.4723729-.6589629 1.4723729-1.4731851 0-.8106667-.659661-1.4708149-1.4723729-1.4708149h-2.5757627c-.0047457 0-.0071186.0011852-.0094915.0011852-2.8083051-.0035555-5.0957627-1.9863703-5.0957627-4.4207407 0 0 0 0 0-.0023704v-3.6693333c1.2125424.896 2.7050847 1.4257778 4.3245763 1.4257778h42.078305c2.280339 0 4.459831-1.0903704 5.820678-2.9155556.119831-.1635556.242034-.3365926.377288-.5534815.021356-.0284444.039153-.0616296.056949-.0936296.098475-.1706667.195763-.3496296.287119-.5357037.005932-.0118519.013051-.0213333.018983-.032.10322-.2263704.188644-.4302222.258644-.6186667.067627-.1777778.129322-.3721481.194576-.6091852.164916-.6186666.250339-1.2562963.250339-1.9034074v-60.6151111c.498305.0711111.972882.2014815 1.415424.3863704.072373.0296296.153051.0592592.22661.0936296.037966.0177778.07356.0414815.109153.0592593.112712.0568889.220678.1114074.327457.1742222.02017.0106667.035594.0260741.054577.0367407.122203.0746667.239661.1517037.353559.2334815.018983.0142222.03322.0260741.051017.0414815.109152.082963.214746.1671111.319152.2595556.072373.0604444.14.1291851.208814.1967407.067627.0675556.132881.141037.194576.210963.035594.0391111.067627.077037.099661.1149629.059322.0722963.111526.1445926.166102.2180741.032034.0414815.061695.082963.09017.1268148.047457.0746667.094915.1505185.142372.2275556.026102.0438518.049831.0912592.075933.1374814.041525.0770371.079491.1528889.116271.229926.022542.0533333.042712.1019259.064068.1552592.029661.0782223.061694.1540741.085423.2311111.021356.0580741.039153.1161482.05339.1765926.021356.0734815.042712.1457778.059322.2204445.017797.0734815.029661.1505185.041526.2228148.007118.0616296.020169.1244444.028474.1860741.013051.1303703.02017.256.02017.3875555 0 .0130371.003559.0225185.003559.0331852v65.7623704c0 2.4402963-2.289831 4.4195555-5.104068 4.4195555h-1.862712c-.813898 0-1.474745.6601482-1.474745 1.4708149 0 .8142222.660847 1.4731851 1.474745 1.4731851h1.853221c.003559 0 .007118.0023704.009491.0023704 4.440848 0 8.052373-3.3066667 8.052373-7.3659259 0 0 0 0 0-.0023704v-65.7540741c0-.0023703 0-.0023703 0-.0023703-.002373-.037926-.003559-.0758519-.003559-.1114074z"/><path d="m122.882503 54.8124444h-37.1794919c-.8138983 0-1.4747458.658963-1.4747458 1.472 0 .8142223.6608475 1.4731852 1.4747458 1.4731852h37.1794919c.813898 0 1.474745-.6589629 1.474745-1.4731852 0-.813037-.660847-1.472-1.474745-1.472"/><path d="m122.882503 60.3034074h-37.1794919c-.8138983 0-1.4747458.658963-1.4747458 1.472s.6608475 1.472 1.4747458 1.472h37.1794919c.813898 0 1.474745-.658963 1.474745-1.472s-.660847-1.472-1.474745-1.472"/><path d="m122.882503 65.7943704h-37.1794919c-.8138983 0-1.4747458.6577777-1.4747458 1.4708148 0 .8142222.6608475 1.4731852 1.4747458 1.4731852h37.1794919c.813898 0 1.474745-.658963 1.474745-1.4731852 0-.8130371-.660847-1.4708148-1.474745-1.4708148"/><path d="m122.882503 71.282963h-37.1794919c-.8138983 0-1.4747458.6613333-1.4747458 1.4743703 0 .8118519.6608475 1.4731852 1.4747458 1.4731852h37.1794919c.813898 0 1.474745-.6613333 1.474745-1.4731852 0-.813037-.660847-1.4743703-1.474745-1.4743703"/><path d="m122.882503 76.7739259h-37.1794919c-.8138983 0-1.4747458.6577778-1.4747458 1.4708148 0 .8142223.6608475 1.472 1.4747458 1.472h37.1794919c.813898 0 1.474745-.6577777 1.474745-1.472 0-.813037-.660847-1.4708148-1.474745-1.4708148"/><path d="m121.411316 30.5434074-3.460847-5.9851852c-.264577-.4562963-.752204-.736-1.275424-.736-.527966 0-1.01322.2797037-1.27661.736l-6.511187 11.2616297-3.322034-5.7505186c-.261016-.4539259-.747457-.736-1.275423-.736-.524407 0-1.010848.2820741-1.27661.736l-11.1228818 19.2521482h-4.7125423v-29.6545185h34.2335591zm0 18.7780741h-16.924576l12.188305-21.0832593 4.736271 8.1943704zm-26.1171185 0 8.9955935-15.570963 2.897288 5.0133334-6.100678 10.5576296zm27.5906775-32.5985185h-37.1806775c-.8174576 0-1.4747457.6601481-1.4747457 1.472v32.5997037c0 .8118518.6572881 1.472 1.4747457 1.472h37.1806775c.812712 0 1.47356-.6601482 1.47356-1.472v-32.5997037c.001186-.8118519-.660848-1.472-1.47356-1.472z"/><path d="m94.5787738 32.0213333c-2.7976271 0-5.0767797-2.272-5.0767797-5.0702222 0-2.7934815 2.2791526-5.0666667 5.0767797-5.0666667 2.7964407 0 5.0708475 2.2731852 5.0708475 5.0666667 0 2.7982222-2.2744068 5.0702222-5.0708475 5.0702222zm-7.4010169-12.3543703v29.6545185h4.7125423l11.1216948-19.2521482c.266949-.4539259.75339-.736 1.27661-.736.527966 0 1.015594.2820741 1.27661.736l3.322034 5.7505186 6.511187-11.2616297c.26339-.4562963.748644-.736 1.275424-.736.524406 0 1.012033.2797037 1.27661.736l3.460847 5.9851852v-10.8764444z" opacity=".4"/><path d="m94.5787738 29.0773333c-1.1733898 0-2.1284746-.954074-2.1284746-2.1262222 0-1.170963.9538983-2.1226667 2.1284746-2.1226667 1.1722034 0 2.1249153.9517037 2.1249153 2.1226667 0 1.1721482-.9527119 2.1262222-2.1249153 2.1262222zm0-7.1928889c-2.7976271 0-5.0767797 2.2731852-5.0767797 5.0666667 0 2.7982222 2.2791526 5.0702222 5.0767797 5.0702222 2.7964407 0 5.0708475-2.272 5.0708475-5.0702222 0-2.7934815-2.2744068-5.0666667-5.0708475-5.0666667z"/><path d="m68.7891128 14.5718519h-60.37084747v-5.02400005c0-3.64207407 2.86169487-6.60266666 6.37830507-6.60266666h47.6083051c3.5201695 0 6.3842373 2.96059259 6.3842373 6.60266666zm-60.37084747 74.5564444v-71.6124444h60.36847457l.0023729 71.6124444zm60.37084747 7.3742222c0 3.6432595-2.8640678 6.6097775-6.3842373 6.6097775h-47.6023729c-3.518983 0-6.38423727-2.966518-6.38423727-6.6097775v-4.4302222h60.37084747zm2.9471186-86.95466665c0-5.26696296-4.1857627-9.54785185-9.3313559-9.54785185h-47.6083051c-5.14322033 0-9.32542372 4.28088889-9.32542372 9.54785185v81.05125925c0 .0414815.00949153.0758519.01186441.1185185-.00237288.037926-.01186441.0746667-.01186441.1114074v5.6734815c0 5.2657775 4.18457627 9.5514075 9.33135592 9.5514075h47.6023729c5.1432203 0 9.3313559-4.28563 9.3313559-9.5514075v-5.6734815c0-.0367407-.0083051-.0758518-.0106779-.1161481.0023728-.0379259.0106779-.0746667.0106779-.1137778l-.0023729-74.5517037s.0023729 0 .0023729-.0047407z"/><path d="m45.7080958 98.8894815h-14.2088135c-.8138983 0-1.4735593-.658963-1.4735593-1.472 0-.8154074.659661-1.4696296 1.4735593-1.4696296h14.2088135c.8138983 0 1.4735594.6542222 1.4735594 1.4696296 0 .813037-.6596611 1.472-1.4735594 1.472zm-37.28983047-6.8171852v4.4302222c0 3.6432595 2.86525427 6.6097775 6.38423727 6.6097775h47.6023729c3.5201695 0 6.3842373-2.966518 6.3842373-6.6097775v-4.4302222z" opacity=".4"/><path d="m45.7080958 10.6465185h-14.2088135c-.8138983 0-1.4735593-.66014813-1.4735593-1.47199998 0-.81303704.659661-1.472 1.4735593-1.472h14.2088135c.8138983 0 1.4735594.65896296 1.4735594 1.472 0 .81185185-.6596611 1.47199998-1.4735594 1.47199998zm16.6967797-7.70133331h-47.6083051c-3.5166102 0-6.37830507 2.96059259-6.37830507 6.60266666v5.02400005h60.37084747v-5.02400005c0-3.64207407-2.8640678-6.60266666-6.3842373-6.60266666z" opacity=".4"/><path d="m47.1816552 97.4174815c0 .813037-.6596611 1.472-1.4735594 1.472h-14.2088135c-.8138983 0-1.4735593-.658963-1.4735593-1.472 0-.8154074.659661-1.4696296 1.4735593-1.4696296h14.2088135c.8138983 0 1.4735594.6542222 1.4735594 1.4696296"/><path d="m47.1816552 9.17451852c0 .81185185-.6596611 1.47199998-1.4735594 1.47199998h-14.2088135c-.8138983 0-1.4735593-.66014813-1.4735593-1.47199998 0-.81303704.659661-1.472 1.4735593-1.472h14.2088135c.8138983 0 1.4735594.65896296 1.4735594 1.472"/><path d="m62.0679263 59.9134815h-46.929661c-.8127118 0-1.4723729.6589629-1.4723729 1.4731852 0 .813037.6596611 1.472 1.4723729 1.472h46.929661c.8138983 0 1.4735594-.658963 1.4735594-1.472 0-.8142223-.6596611-1.4731852-1.4735594-1.4731852"/><path d="m62.0679263 65.4056296h-46.929661c-.8127118 0-1.4723729.6577778-1.4723729 1.4696297 0 .8142222.6596611 1.4743703 1.4723729 1.4743703h46.929661c.8138983 0 1.4735594-.6601481 1.4735594-1.4743703 0-.8118519-.6596611-1.4696297-1.4735594-1.4696297"/><path d="m62.0679263 70.8942222h-46.929661c-.8127118 0-1.4723729.6577778-1.4723729 1.4731852 0 .8118519.6596611 1.4708148 1.4723729 1.4708148h46.929661c.8138983 0 1.4735594-.6589629 1.4735594-1.4708148 0-.8154074-.6596611-1.4731852-1.4735594-1.4731852"/><path d="m62.0679263 76.3851852h-46.929661c-.8127118 0-1.4723729.6601481-1.4723729 1.4708148 0 .8154074.6596611 1.4743704 1.4723729 1.4743704h46.929661c.8138983 0 1.4735594-.658963 1.4735594-1.4743704 0-.8106667-.6596611-1.4708148-1.4735594-1.4708148"/><path d="m62.0679263 81.874963h-46.929661c-.8127118 0-1.4723729.6565926-1.4723729 1.4708148s.6596611 1.472 1.4723729 1.472h46.929661c.8138983 0 1.4735594-.6577778 1.4735594-1.472s-.6596611-1.4708148-1.4735594-1.4708148"/><path d="m16.6130111 53.7848889h43.9801695v-29.6545185h-43.9801695zm45.4537288-32.5973333h-46.9284746c-.8127118 0-1.4735593.6589629-1.4735593 1.4708148v32.5985185c0 .813037.6608475 1.472 1.4735593 1.472h46.9284746c.8127119 0 1.4735593-.658963 1.4735593-1.472v-32.5985185c0-.8118519-.6608474-1.4708148-1.4735593-1.4708148z"/><path d="m44.8764009 41.3902222-11.0718644 6.3857778c-.2266102.1303704-.4805085.1979259-.7379661.1979259-.2527119 0-.5066102-.0675555-.7355932-.1979259-.4555932-.2642963-.7367797-.7514074-.7367797-1.2752593v-12.7691851c0-.5262223.2811865-1.0121482.7367797-1.2740741.4567797-.2642963 1.0191525-.2642963 1.4735593 0l11.0718644 6.3834074c.4555932.2607407.7391526.7502222.7391526 1.2752592 0 .5274075-.2835594 1.0121482-.7391526 1.2740741zm-28.2633898 12.3946667h43.9801695v-29.6545185h-43.9801695z" opacity=".4"/><path d="m34.5413162 43.9514074v-7.6693333l6.6511864 3.834074zm10.3350847-5.1105185-11.0718644-6.3834074c-.4544068-.2642963-1.0167796-.2642963-1.4735593 0-.4555932.2619259-.7367797.7478518-.7367797 1.2740741v12.7691851c0 .5238519.2811865 1.010963.7367797 1.2752593.228983.1303704.4828813.1979259.7355932.1979259.2574576 0 .5113559-.0675555.7379661-.1979259l11.0718644-6.3857778c.4555932-.2619259.7391526-.7466666.7391526-1.2740741 0-.525037-.2835594-1.0145185-.7391526-1.2752592z"/><path d="m119.139282 122.023111c-2.95661 0-5.361525-2.401185-5.361525-5.354667 0-2.953481 2.404915-5.354666 5.361525-5.354666 2.955424 0 5.360339 2.401185 5.360339 5.354666 0 2.953482-2.404915 5.354667-5.360339 5.354667zm-21.3274574 0c-2.9566101 0-5.3615254-2.401185-5.3615254-5.354667 0-2.953481 2.4049153-5.354666 5.3615254-5.354666 2.9566104 0 5.3603394 2.401185 5.3603394 5.354666 0 2.953482-2.403729 5.354667-5.3603394 5.354667zm21.3274574-32.1090369c-4.580847 0-8.30983 3.7226666-8.30983 8.2986666 0 .8142223.660847 1.472 1.474746 1.472.812711 0 1.473559-.6577777 1.473559-1.472 0-2.9499259 2.404915-5.3558518 5.361525-5.3558518 2.955424 0 5.360339 2.4059259 5.360339 5.3558518v12.1220743c-1.447457-1.224296-3.318474-1.963852-5.360339-1.963852-4.078983 0-7.478135 2.949926-8.17339 6.824296h-4.978305c-.698813-3.87437-4.096779-6.824296-8.1757624-6.824296-2.0430508 0-3.9116949.739556-5.3615254 1.963852v-12.1220743c0-2.9499259 2.4049153-5.3558518 5.3615254-5.3558518 2.9566104 0 5.3603394 2.4059259 5.3603394 5.3558518 0 .8142223.660847 1.472 1.474745 1.472.812712 0 1.47356-.6577777 1.47356-1.472 0-4.576-3.728983-8.2986666-8.3086444-8.2986666-4.579661 0-8.3098305 3.7226666-8.3098305 8.2986666v18.4557033c0 4.576 3.7301695 8.298667 8.3098305 8.298667 4.0789834 0 7.4769494-2.951111 8.1757624-6.829037h4.978305c.695255 3.877926 4.094407 6.829037 8.17339 6.829037 4.579661 0 8.305085-3.722667 8.308644-8.295111 0-.001185 0-.001185 0-.003556v-18.4557033c0-.0035555 0-.0035555 0-.0035555-.004745-4.5724445-3.728983-8.2951111-8.308644-8.2951111z"/><path d="m124.499621 116.668444c0 2.953482-2.404915 5.354667-5.360339 5.354667-2.95661 0-5.360339-2.401185-5.360339-5.354667 0-2.953481 2.403729-5.354666 5.360339-5.354666 2.955424 0 5.360339 2.401185 5.360339 5.354666" opacity=".4"/><path d="m103.172164 116.668444c0 2.953482-2.403729 5.354667-5.3603394 5.354667-2.9566101 0-5.3615254-2.401185-5.3615254-5.354667 0-2.953481 2.4049153-5.354666 5.3615254-5.354666 2.9566104 0 5.3603394 2.401185 5.3603394 5.354666" opacity=".4"/><path d="m79.1692823 122.023111h3.3920339v-8.585481h-3.3920339zm-2.9471187.868741c0 .091259-.0094915.178963-.0272881.265481-.0023729.014223-.0118644.033186-.0130509.050963-.1411864.587852-.6703389 1.026371-1.3038983 1.026371-.7403389 0-1.3442372-.600889-1.3442372-1.342815v-10.322963c0-.73837.6038983-1.342815 1.3442372-1.342815.6311865 0 1.1627119.439704 1.3038983 1.027556.0023729.018963.010678.03674.0130509.056889.0177966.082962.0272881.170666.0272881.25837zm-62.0449152-.868741h56.409322v-8.585481h-56.409322zm-2.9471187-.935111-6.5372881-3.356444 6.5372881-3.352889zm72.8059322-10.59437h-5.4054237c-.7344068-1.315556-2.1415254-2.211556-3.7527119-2.211556-1.6123728 0-3.0159322.896-3.7515254 2.211556h-58.4227118c-.0166102 0-.0332204.00474-.0498306.00474-.0533898.005926-.1055932.010667-.158983.018963-.0474576.007111-.0913559.010667-.1352542.023704-.0438983.009482-.0889831.023704-.1328814.039111-.0510169.020148-.1008475.039111-.150678.056889-.0154237.010667-.0284745.013037-.0438983.021333l-11.23796607 5.764741c-.0059322.003556-.00830508.007111-.01542373.009482-.05220339.029629-.10322034.06637-.1518644.101926-.03084746.018962-.06288136.03437-.09135594.061629-.03915254.027259-.06881356.064-.10440678.098371-.03559322.03437-.07118644.067555-.10203389.104296-.02372882.028444-.04271187.064-.06288136.093629-.03440678.049778-.07118644.097186-.09728814.150519-.00237288.003556-.00949152.010667-.0118644.018963-.01542373.028444-.02372882.058074-.0379661.092444-.0201695.053334-.04508475.101926-.0581356.15526-.01542373.043851-.02491525.091259-.03322034.137481-.00949152.048593-.01779661.096-.02372881.141037-.0059322.048593-.00355932.096-.00355932.143408 0 .049777-.00237288.096.00355932.142222.0059322.048592.01423729.096.02372881.141037.00830509.048592.01779661.092444.03322034.139852.01305085.053333.0379661.103111.0581356.152889.01423728.033185.02016949.06637.0379661.097185.00237288.005926.00949152.011852.0118644.021333.01186441.018963.02372882.03437.03322034.052148.03440678.056889.07237288.111408.11033899.165926.01898305.016593.03322034.037926.04745762.054519.11745763.136296.25745763.246518.41050848.325926.00830508.00474.01542373.013037.02372881.015407l11.23796607 5.765926c.0201695.010667.0438983.020148.0676272.030815.0177966.008296.0355932.015407.0557627.023703.0759322.032.1566101.054519.2361017.075852.0142372.001185.0272881.001185.0415254.005926.0913559.017778.180339.027259.2705085.027259l.0035593-.00237h58.4191525c.7332204 1.319111 2.1391526 2.211556 3.7515254 2.211556 1.6111865 0 3.0183051-.892445 3.7527119-2.211556h5.4042373c.8138983 0 1.4735593-.655407 1.4735593-1.468444v-11.533037c0-.811852-.659661-1.472-1.4723729-1.472z"/><path d="m79.1692823 122.023111h3.3920339v-8.585481h-3.3920339z" opacity=".4"/><path d="m67.4033501 119.20237h-50.090339c-.8138983 0-1.4735593-.654222-1.4735593-1.470814 0-.814223.659661-1.474371 1.4735593-1.474371h50.090339c.8138983 0 1.4735593.660148 1.4735593 1.474371 0 .816592-.659661 1.470814-1.4735593 1.470814zm-53.2261017 2.820741h56.409322v-8.585481h-56.409322z" opacity=".4"/><path d="m68.8769094 117.731556c0 .816592-.659661 1.470814-1.4735593 1.470814h-50.090339c-.8138983 0-1.4735593-.654222-1.4735593-1.470814 0-.814223.659661-1.474371 1.4735593-1.474371h50.090339c.8138983 0 1.4735593.660148 1.4735593 1.474371"/></g><g fill="#fff" opacity=".6" transform="matrix(0 -1 1 0 0 120)"><circle cx="96" cy="70" r="3"/><circle cx="96" cy="52" r="3"/><circle cx="107" cy="156" r="3"/><circle cx="117" cy="156" r="3"/><circle cx="117" cy="147" r="3"/><circle cx="18" cy="228" r="3"/><circle cx="27" cy="228" r="3"/><circle cx="27" cy="237" r="3"/><circle cx="18" cy="219" r="3"/><circle cx="83" cy="213" r="3"/><circle cx="93" cy="213" r="3"/><circle cx="3" cy="13" r="3"/><circle cx="13" cy="13" r="3"/><circle cx="13" cy="3" r="3"/><circle cx="33" cy="13" r="3"/></g><path d="m-21-6h282v210h-282z"/></g></svg>