<svg height="31" viewBox="0 0 33 31" width="33" xmlns="http://www.w3.org/2000/svg"><g fill="none" fill-rule="evenodd"><path d="m0 15.5c0-8.56041405 7.38730118-15.5 16.5-15.5 9.1126988 0 16.5 6.93958595 16.5 15.5 0 8.560414-7.3873012 15.5-16.5 15.5-9.11269882 0-16.5-6.939586-16.5-15.5zm16.500825-8.26666667c-2.3899582 0-2.6898947.00981677-3.6285711.04994497-.9368431.04030042-1.5763164.17962965-2.1358556.38405955-.5787894.21114665-1.06976115.49359403-1.55889958.95325993-.4895051.45949368-.79017489.92070959-1.01567724 1.46424862-.21816894.5257999-.36667049 1.1266895-.40883759 2.0064098-.04198378.8817869-.05298389 1.1637176-.05298389 3.4088299s.01063344 2.5260097.05316722 3.4077966c.04308378.8800647.19140199 1.4807821.40883759 2.0064098.22495235.5437112.52562214 1.0049271 1.01494391 1.4644208.48895509.4598381.97992688.7429744 1.55834958.9541211.5599058.2044299 1.1995625.3437591 2.1362222.3840595.9386765.0401282 1.2384296.049945 3.6282045.049945 2.3901416 0 2.6891613-.0098168 3.6278378-.049945.9368431-.0403004 1.5770497-.1796296 2.1369556-.3840595.578606-.2111467 1.0688444-.494283 1.5577995-.9541211.4895051-.4594937.7901749-.9207096 1.0156773-1.4642486.2163356-.5257999.3648371-1.1266895.4088376-2.0064098.0421671-.8817869.0531672-1.1628565.0531672-3.4079688s-.0110001-2.5268708-.0531672-3.4086577c-.0440005-.8800647-.192502-1.4807821-.4088376-2.0064098-.2255024-.54371123-.5261722-1.00492714-1.0156773-1.46442082-.4895051-.45983812-.9790102-.74228551-1.5583495-.95325993-.5610059-.2044299-1.2008459-.34375913-2.137689-.38405955-.9386764-.0401282-1.2375129-.04994497-3.6282044-.04994497z" fill="#02e677"/><g fill="#00e676"><path d="m15.7113835 8.72307107c.2343024-.00034444.4957384 0 .7894415 0 2.3496245 0 2.6281107.00792231 3.5559704.04753383.8580089.03685594 1.3236804.17153512 1.6338837.2846863.4106709.1498349.7034573.32894787 1.0112772.61828422.3080032.28933635.4986718.56489478.6585402.95067658.1204512.2910586.2640027.7285076.3030531 1.534516.0421671.8714535.0513339 1.133234.0513339 3.3394236 0 2.2061897-.0091668 2.4679702-.0513339 3.3394237-.0392337.8060084-.1826019 1.2434574-.3030531 1.534516-.1595017.3857818-.350537.6604791-.6585402.9496432-.3080032.2893364-.600423.4684494-1.0112772.6182843-.3098366.1136678-.7758748.2480025-1.6338837.2848585-.9276763.0396115-1.2063459.0482227-3.5559704.0482227-2.3498078 0-2.628294-.0086112-3.5559704-.0482227-.8580089-.0372004-1.3236804-.1718796-1.634067-.2850308-.4106709-.1498349-.7040073-.3289478-1.0120105-.6182842-.30800324-.2893363-.49867189-.5642059-.65854022-.9501599-.12045126-.2910586-.26400275-.7285076-.30305316-1.534516-.04216711-.8714535-.05060053-1.133234-.05060053-3.3408014 0-2.2075675.00843342-2.4679702.05060053-3.3394237.03923374-.8060084.1826019-1.2434574.30305316-1.5348604.15950166-.3857818.35053698-.66134027.65854022-.95067662.3080032-.28933634.6013396-.46844932 1.0120105-.61862866.3102032-.11366785.7760581-.24800259 1.634067-.28503075.8118085-.0344448 1.1264118-.04477824 2.7665289-.04650048zm5.4868571 1.37262543c-.5830061 0-1.056011.4438213-1.056011.9916659 0 .5476723.4730049.9920103 1.056011.9920103s1.056011-.444338 1.056011-.9920103c0-.5476724-.4730049-.9920104-1.056011-.9920104zm-4.6974156 1.1590676c-2.4957427 0-4.5192137 1.9008365-4.5192137 4.245322s2.023471 4.2444609 4.5192137 4.2444609 4.5184804-1.8999754 4.5184804-4.2444609-2.0229211-4.245322-4.5186637-4.245322z"/><path d="m16.500825 12.7445019c1.6199502 0 2.9333639 1.2336406 2.9333639 2.7555842 0 1.5217714-1.3134137 2.7555843-2.9333639 2.7555843-1.6201335 0-2.9333639-1.2338129-2.9333639-2.7555843 0-1.5219436 1.3132304-2.7555842 2.9333639-2.7555842z"/></g></g></svg>