<svg height="24" viewBox="0 0 20 24" width="20" xmlns="http://www.w3.org/2000/svg"><path d="m323.072136 2.96243292c-3.903819-3.94991056-10.240453-3.94991056-14.144272 0-3.903819 3.94991055-3.903819 10.38998208 0 14.33989268l6.280057 6.3542039c.226308.2289803.509194.3434705.792079.3434705s.565771-.1144902.792079-.3434705l6.280057-6.3828265c3.903819-3.9499105 3.903819-10.36135953 0-14.31127008zm-7.072136 11.60758498c-2.618466 0-4.745969-2.1526223-4.745969-4.80200359 0-2.64938128 2.127503-4.80200358 4.745969-4.80200358s4.745969 2.1526223 4.745969 4.80200358c0 2.64938129-2.127503 4.80200359-4.745969 4.80200359z" fill="#00e676" transform="translate(-306)"/></svg>