<svg height="31" viewBox="0 0 33 31" width="33" xmlns="http://www.w3.org/2000/svg"><path d="m0 15.5c0-8.56041405 7.38730118-15.5 16.5-15.5 9.1126988 0 16.5 6.93958595 16.5 15.5 0 8.560414-7.3873012 15.5-16.5 15.5-9.11269882 0-16.5-6.939586-16.5-15.5zm13.8465777-4.1740852-5.28276132-2.45191881c-.04519941-.02100587-.08828834-.0309102-.12721494-.0309102-.05545867 0-.10235819.02024401-.13536372.05719476-.03230204.03613445-.05123772.08837704-.05123772.1537347v10.52611985c0 .1791485.14122616.3912208.31381638.4713261l4.88188772 2.265859c.0678284.0315088.1324325.0464197.1908224.0464197.1645 0 .2798729-.1181444.2798729-.3164486v-10.6164559c0-.0444062-.0270259-.0850575-.0698217-.1049206zm6.1875702 8.7861696 4.7438273 2.201753c.2588853.1201579.4706952-.0013605.4706952-.2700833v-9.7974446zm-5.6169204-7.998286v5.3944827l5.1656298 2.3975539zm10.7072765-.8133518-5.3847678-2.49926372c-.0244464-.01137364-.0510618-.01665232-.0776773-.01730535-.0017587-.00005442-.0034588-.0005442-.0052176-.0005442-.0654834 0-.1306738.03052927-.1659656.08369698l-3.3189614 5.00652699 3.7049444 5.5887598 5.2992934-7.9936603c.0392783-.0593171.0154182-.1370823-.0516481-.1682102z" fill="#00e676" fill-rule="evenodd"/></svg>