<svg height="172" viewBox="0 0 240 172" width="240" xmlns="http://www.w3.org/2000/svg"><g fill="none" fill-rule="evenodd"><path d="m-21-5h282v210h-282z"/><g fill="#fff" opacity=".6" transform="matrix(0 -1 1 0 0 120)"><circle cx="96" cy="70" r="3"/><circle cx="96" cy="52" r="3"/><circle cx="107" cy="156" r="3"/><circle cx="117" cy="156" r="3"/><circle cx="117" cy="147" r="3"/><circle cx="18" cy="228" r="3"/><circle cx="27" cy="228" r="3"/><circle cx="27" cy="237" r="3"/><circle cx="18" cy="219" r="3"/><circle cx="83" cy="213" r="3"/><circle cx="93" cy="213" r="3"/><circle cx="3" cy="13" r="3"/><circle cx="13" cy="13" r="3"/><circle cx="13" cy="3" r="3"/><circle cx="33" cy="13" r="3"/></g><g fill="#00e676" transform="translate(55 43)"><path d="m86.1338136 2.73766667h-43.3296611l-6.3501694 4.50066666h56.0288983z" opacity=".4"/><path d="m126.200254 44.6825128h-3.415254s-.003305 0-.005508 0c0 0-.003306 0-.006611 0h-26.9518641v-29.6325128h19.2179661c6.15517 0 11.16017 5.0111538 11.16017 11.1711795v18.4613333zm-30.3781354 80.6713082h25.5890674v-77.9303338h-25.5890674zm-1.3694067-113.0436928s0 0-.0022034 0h-59.966356s0 0-.003305 0c0 0 0 0-.0022034 0h-5.1845763l7.1599153-5.07179487 6.3501694-4.50066666h43.3296611l6.3479661 4.50066666 7.1610169 5.07179487h-5.1867797s0 0-.003305 0zm-1.3694068 113.0436928h-7.4595763v-30.6336415c-.0022034-3.4488205-2.8060169-6.2504359-6.2510169-6.2504359h-29.8118644c-3.445 0-6.2488136 2.8071282-6.2488136 6.2559487v30.6281287h-7.4617797v-110.303821h57.2330509zm-10.1972882 0h-17.0498305v-34.1442056h13.5365255c1.9378813 0 3.513305 1.5766667 3.513305 3.5160769zm-19.7853389 0h-17.0509322v-30.6281287c0-1.9394102 1.5765254-3.5160769 3.5111017-3.5160769h13.5398305zm-29.9870339-80.6713082h-26.95296613s-.00330509 0-.00550848 0h-3.41745763v-18.4613333c0-6.1600257 5.00720339-11.1711795 11.16237284-11.1711795h19.2135594zm-25.59016952 80.6713082h25.59016952v-77.9303338h-25.59016952zm107.51661042-113.0436928h-10.663305l-7.476102-5.29892307-9.5417797-6.75982052c-.2324576-.16317948-.505678-.25138461-.7910169-.25138461h-44.1988983c-.285339 0-.5585594.08820513-.7921187.25138461l-17.0167797 12.05874359h-10.66c-7.66559317 0-13.9000847 6.2405128-13.9000847 13.9110513v19.8307179c0 .7574616.61254237 1.3715898 1.36830508 1.3715898h3.41855933v79.2997178c0 .757462.61364406 1.369385 1.36830508 1.369385h116.62432251c.757966 0 1.367203-.611923 1.367203-1.369385v-79.2997178h3.421864c.755763 0 1.369407-.6141282 1.369407-1.3715898v-19.8307179c0-7.6705385-6.234491-13.9110513-13.897881-13.9110513z"/><path d="m43.3120339 59.4061538c0-3.4477179 2.8038136-6.2537435 6.2488136-6.2537435h4.0421186c3.4461017 0 6.2488136 2.8060256 6.2488136 6.2537435v18.6928718c0 .7552565-.6136441 1.3693847-1.3683051 1.3693847h-13.8020339c-.7557627 0-1.3694068-.6141282-1.3694068-1.3693847zm0-31.7615641c0-3.4488205 2.8038136-6.252641 6.2488136-6.252641h4.0421186c3.4461017 0 6.2488136 2.8038205 6.2488136 6.252641v18.6928718c0 .756359-.6136441 1.3704872-1.3683051 1.3704872h-13.8020339c-.7557627 0-1.3694068-.6141282-1.3694068-1.3704872zm32.0229661 25.5078206h4.0377119c3.445 0 6.2488135 2.8016153 6.2510169 6.2504359v18.6961794c0 .7552565-.6125424 1.3693847-1.3672034 1.3693847h-13.8020339c-.7557627 0-1.3683051-.6141282-1.3683051-1.3693847v-18.6763333c0-.0066154-.003305-.0121282-.003305-.0165385 0-3.4477179 2.8049152-6.2537435 6.2521186-6.2537435zm0-31.7604616h4.0377119c3.445 0 6.2488135 2.8005128 6.2510169 6.2504359v18.6950769c0 .756359-.6125424 1.3704872-1.3672034 1.3704872h-13.8020339c-.7557627 0-1.3683051-.6141282-1.3683051-1.3704872v-18.6752307c0-.007718-.003305-.0121282-.003305-.0176411 0-3.4488205 2.8049152-6.252641 6.2521186-6.252641zm-39.4847458 103.9618723h7.4617797v-30.6281287c0-3.4488205 2.8038136-6.2559487 6.2488136-6.2559487h29.8118644c3.445 0 6.2488135 2.8016154 6.2510169 6.2504359v30.6336415h7.4595763v-110.303821h-57.2330509z" opacity=".4"/><path d="m14.6833898 27.6423846c0-1.9338974 1.571017-3.508359 3.5022882-3.5149743h4.0597457c1.9312712.0066153 3.5000848 1.5777692 3.5022882 3.5094615v.0077179 10.4181282h-4.1655085v-10.4181282c0-.7563589-.6125424-1.3693846-1.3683051-1.3693846s-1.3683051.6130257-1.3683051 1.3693846v10.4181282h-4.1622034zm-2.7366101.0022051v.0055129 11.7831025c0 .7552564.6125423 1.3693846 1.368305 1.3693846h13.8009322c.7557628 0 1.3683051-.6141282 1.3683051-1.3693846v-11.7886154c0-3.4488205-2.8027118-6.252641-6.2477118-6.252641h-4.0432204c-3.445 0-6.2466101 2.8038205-6.2466101 6.252641z"/><path d="m114.039746 27.6445897v10.4181282h-4.164407v-10.4181282c0-.7563589-.613644-1.3693846-1.369407-1.3693846-.754661 0-1.368305.6130257-1.368305 1.3693846v10.4181282h-4.163305v-10.4181282c0-.0022051 0-.0022051 0-.0077179.004407-1.9316923 1.572119-3.5039487 3.504492-3.5094615h4.058644c1.932373.0066153 3.502288 1.5810769 3.502288 3.5149743zm-3.51-6.252641h-4.043221c-3.446101 0-6.247711 2.8038205-6.247711 6.252641v11.7886154c0 .7552564.612542 1.3693846 1.368305 1.3693846h13.802034c.754661 0 1.368305-.6141282 1.368305-1.3693846v-11.7886154c0-3.4488205-2.802712-6.252641-6.247712-6.252641z"/><path d="m14.6833898 59.4061538c0-.0033076 0-.0033076 0-.0033076 0-1.9316924 1.571017-3.5094616 3.5022882-3.5138718.0022034 0 .0066101.0011025.0077118.0011025h4.0432204c.0033051 0 .0055084-.0011025.0088135-.0011025 1.9312712.0044102 3.5000848 1.5766666 3.5022882 3.5105641v.0066153 10.4170257h-4.1655085v-10.4170257c0-.7563589-.6125424-1.3704871-1.3683051-1.3704871s-1.3683051.6141282-1.3683051 1.3704871v10.4170257h-4.1622034zm-1.3683051 13.1568975h6.8955085.0033051.0033051 6.8988135c.7557628 0 1.3683051-.6130257 1.3683051-1.3693846v-11.7875129c0-3.4477179-2.8027118-6.2559487-6.2477118-6.2559487-.0044068 0-.011017.0022052-.0132204.0022052h-4.0156779c-.0044068 0-.0077119-.0022052-.0143221-.0022052-3.445 0-6.2466101 2.8082308-6.2466101 6.2559487v.0044103 11.7831026c0 .7563589.6125423 1.3693846 1.368305 1.3693846z"/><path d="m102.974322 59.4061538c0-.0033076 0-.0033076 0-.0033076 0-1.9316924 1.572119-3.5094616 3.504492-3.5138718.002203 0 .004406.0011025.007711.0011025h4.043221c.002203 0 .004407-.0011025.007712-.0011025 1.932373.0044102 3.500084 1.5821794 3.502288 3.5138718v.0033076 10.4170257h-4.164407v-10.4170257c0-.7563589-.613644-1.3704871-1.369407-1.3704871-.754661 0-1.368305.6141282-1.368305 1.3704871v10.4170257h-4.163305zm-1.367203 13.1568975h6.89661.002203.003305 6.899916c.754661 0 1.368305-.6130257 1.368305-1.3693846v-11.7831026c0-.0022051 0-.0044103 0-.0044103 0-3.4477179-2.802712-6.2559487-6.247712-6.2559487-.00661 0-.012119.0022052-.014322.0022052h-4.014577c-.00661 0-.008813-.0022052-.014322-.0022052-3.446101 0-6.247711 2.8082308-6.247711 6.2559487v.0044103 11.7831026c0 .7563589.613644 1.3693846 1.368305 1.3693846z"/><path d="m71.8216949 27.6346667c.0055085-1.9327949 1.5754237-3.5017436 3.5033898-3.5072564h4.0564407c1.9345763.0055128 3.5044915 1.5810769 3.5044915 3.5171794v17.3234872h-4.1644067v-16.9927179c0-.7552564-.6125424-1.3682821-1.3683051-1.3682821-.754661 0-1.3683051.6130257-1.3683051 1.3682821v16.9927179h-4.1633051zm-2.7355085 18.7027948c0 .756359.6125424 1.3704872 1.3683051 1.3704872h13.8020339c.754661 0 1.3672034-.6141282 1.3672034-1.3704872v-18.6950769c-.0022034-3.4499231-2.8060169-6.2504359-6.2510169-6.2504359h-4.0377119c-3.4472034 0-6.2521186 2.8038205-6.2521186 6.252641 0 .0055129.003305.0099231.003305.0176411z"/><path d="m46.0497458 27.6445897c0-1.9361025 1.5710169-3.5105641 3.5033898-3.5171794h4.0586441c1.9323728.0055128 3.498983 1.5777692 3.5033898 3.5083589v17.3323077h-4.1622034v-16.9927179c0-.7552564-.6147458-1.3682821-1.3694068-1.3682821-.7579661 0-1.3683051.6130257-1.3683051 1.3682821v16.9927179h-4.1655084zm-1.3683051 20.063359h13.8020339c.754661 0 1.3683051-.6141282 1.3683051-1.3704872v-18.6928718c0-3.4488205-2.8027119-6.252641-6.2488136-6.252641h-4.0421186c-3.445 0-6.2488136 2.8038205-6.2488136 6.252641v18.6928718c0 .756359.6136441 1.3704872 1.3694068 1.3704872z"/><path d="m71.8216949 59.3929231c.0055085-1.9272821 1.5754237-3.4962308 3.5033898-3.5028462h4.0564407c1.9345763.0066154 3.5044915 1.5821795 3.5044915 3.5160769v.0022052 17.3201795h-4.1644067v-16.9916154c0-.7552564-.6125424-1.3704872-1.3683051-1.3704872-.754661 0-1.3683051.6152308-1.3683051 1.3704872v16.9916154h-4.1633051zm-2.7355085 18.7061025c0 .7552565.6125424 1.3693847 1.3683051 1.3693847h13.8020339c.754661 0 1.3672034-.6141282 1.3672034-1.3693847v-18.6961794c-.0022034-3.4488206-2.8060169-6.2504359-6.2510169-6.2504359h-4.0377119c-3.4472034 0-6.2521186 2.8060256-6.2521186 6.2537435 0 .0044103.003305.0099231.003305.0165385z"/><path d="m46.0497458 59.4061538c0-1.9338974 1.5710169-3.5094615 3.5033898-3.5160769h4.0586441c1.9323728.0066154 3.498983 1.5755641 3.5033898 3.5094616v.0066153 17.3223847h-4.1622034v-16.9916154c0-.7552564-.6147458-1.3704872-1.3694068-1.3704872-.7579661 0-1.3683051.6152308-1.3683051 1.3704872v16.9916154h-4.1655084zm-1.3683051 20.0622565h13.8020339c.754661 0 1.3683051-.6141282 1.3683051-1.3693847v-18.6928718c0-3.4477179-2.8027119-6.2537435-6.2488136-6.2537435h-4.0421186c-3.445 0-6.2488136 2.8060256-6.2488136 6.2537435v18.6928718c0 .7552565.6136441 1.3693847 1.3694068 1.3693847z"/><path d="m14.6833898 82.9337692c0-1.935 1.571017-3.5072564 3.5000848-3.5127692h4.0641525c1.9290678.0055128 3.4978814 1.5777692 3.5000848 3.5094615v.0055129 10.4192307h-4.1655085v-10.4192307c0-.7541539-.6125424-1.3682821-1.3683051-1.3682821s-1.3683051.6141282-1.3683051 1.3682821v10.4192307h-4.1622034zm-1.3683051 13.1602052h6.8955085.0033051.0033051 6.8988135c.7557628 0 1.3683051-.6141282 1.3683051-1.3682821v-11.7897179c0-3.4499231-2.8027118-6.2526411-6.2477118-6.2526411h-4.0432204c-3.445 0-6.2466101 2.802718-6.2466101 6.2526411v.0044102 11.7853077c0 .7541539.6125423 1.3682821 1.368305 1.3682821z"/><path d="m102.974322 82.9337692c0-1.935 1.572119-3.5072564 3.502288-3.5127692h4.064153c1.929068.0055128 3.496779 1.5777692 3.498983 3.5127692v10.4203334h-4.164407v-10.4181282c0-.7574616-.613644-1.3682821-1.369407-1.3682821-.754661 0-1.368305.6108205-1.368305 1.3682821v10.4181282h-4.163305zm-1.367203 13.1602052h6.89661.002203.003305 6.899916c.754661 0 1.368305-.6141282 1.368305-1.3682821v-11.7853077c0-.0033077 0-.0033077 0-.0044102 0-3.4499231-2.802712-6.2526411-6.247712-6.2526411h-4.043221c-3.446101 0-6.247711 2.802718-6.247711 6.2526411v.0044102 11.7853077c0 .7541539.613644 1.3682821 1.368305 1.3682821z"/><path d="m14.6833898 106.462487c0-1.932795 1.571017-3.505051 3.5000848-3.510564h4.0641525c1.9290678.005513 3.4978814 1.577769 3.5000848 3.509462v.005512 10.418129h-4.1655085v-10.418129c0-.756359-.6125424-1.369384-1.3683051-1.369384s-1.3683051.613025-1.3683051 1.369384v10.418129h-4.1622034zm-1.3683051 13.16241h6.8955085.0033051.0033051 6.8988135c.7557628 0 1.3683051-.614128 1.3683051-1.369384v-11.788616c0-3.44882-2.8027118-6.253743-6.2477118-6.253743h-4.0432204c-3.445 0-6.2466101 2.804923-6.2466101 6.253743v11.788616c0 .755256.6125423 1.369384 1.368305 1.369384z"/><path d="m102.974322 106.462487c0-1.932795 1.572119-3.505051 3.502288-3.510564h4.064153c1.929068.005513 3.496779 1.577769 3.498983 3.510564v10.421436h-4.164407v-10.417026c0-.756359-.613644-1.369384-1.369407-1.369384-.754661 0-1.368305.613025-1.368305 1.369384v10.417026h-4.163305zm-1.367203 13.16241h6.89661.002203.003305 6.899916c.754661 0 1.368305-.614128 1.368305-1.369384v-11.788616c0-3.44882-2.802712-6.253743-6.247712-6.253743h-4.043221c-3.446101 0-6.247711 2.804923-6.247711 6.253743v11.788616c0 .755256.613644 1.369384 1.368305 1.369384z"/><path d="m7.52347458 49.966h25.59016952v-2.5425128h-25.59016952z" opacity=".4"/><path d="m95.8210169 49.966h25.5890681v-2.5425128h-25.5890681z" opacity=".4"/></g></g></svg>