<svg height="172" viewBox="0 0 240 172" width="240" xmlns="http://www.w3.org/2000/svg"><g fill="none" fill-rule="evenodd"><path d="m-21-5h282v210h-282z"/><g fill="#fff" opacity=".6" transform="matrix(0 -1 1 0 0 120)"><circle cx="96" cy="70" r="3"/><circle cx="96" cy="52" r="3"/><circle cx="107" cy="156" r="3"/><circle cx="117" cy="156" r="3"/><circle cx="117" cy="147" r="3"/><circle cx="18" cy="228" r="3"/><circle cx="27" cy="228" r="3"/><circle cx="27" cy="237" r="3"/><circle cx="18" cy="219" r="3"/><circle cx="83" cy="213" r="3"/><circle cx="93" cy="213" r="3"/><circle cx="3" cy="13" r="3"/><circle cx="13" cy="13" r="3"/><circle cx="13" cy="3" r="3"/><circle cx="33" cy="13" r="3"/></g><g fill="#00e676" transform="translate(55 29)"><path d="m78.1616372 63.0322919h-24.5136284c-1.1504424 0-2.0903539-.9387258-2.0903539-2.0965646 0-1.1578387.9399115-2.0965645 2.0903539-2.0965645h24.5136284c1.1550442 0 2.0949557.9387258 2.0949557 2.0965645 0 1.1543791-.9399115 2.0965646-2.0949557 2.0965646zm-41.7265487-21.3992581c-.9629204-.9629436-.9629204-2.5324839 0-3.4988871.9640708-.96525 2.529823-.96525 3.4984956.0080726l4.3820354 4.3188306c.0046017.0046129.0126548.0080726.0138053.0115323.8133628.8280161 1.9338938 1.3019919 3.0935398 1.3019919 2.4021239 0 4.360177-1.9466451 4.3624779-4.3453548 0-.0023065 0-.0023065 0-.0057662v-27.7339274c0-1.3631129 1.110177-2.4725161 2.47-2.4725161s2.4676991 1.1094032 2.4676991 2.4725161v20.8641613c0 .7911129.6384956 1.4323065 1.4265487 1.4323065s1.4288495-.6411936 1.4288495-1.4323065v-3.2774677c0-1.409242 1.1297345-2.6005242 2.4676991-2.6005242s2.4676992 1.1912822 2.4676992 2.6005242v4.4260806c0 .7911129.6419469 1.4323065 1.4288495 1.4323065.790354 0 1.43-.6411936 1.43-1.4323065v-2.7700484c0-1.3665725 1.1067257-2.4748225 2.4688496-2.4748225 1.3609734 0 2.4665486 1.10825 2.4665486 2.4748225v1.5211049.0069193.0023065 2.8969032c0 .7899597.6407965 1.4311532 1.4288496 1.4311532.7892035 0 1.43-.6411935 1.43-1.4311532v-2.906129c.0034513-1.3608065 1.1090265-2.4690565 2.47-2.4690565 1.359823 0 2.4653982 1.1117097 2.4653982 2.4759758v19.8816129c0 2.002-1.6244248 3.6315081-3.6238938 3.6315081 0 0-.0023009 0-.0069026 0h-22.8236284c-.8386725 0-1.6301769.2133468-2.3238938.5858387zm44.6325664 15.2917742c1.1688495-1.1751371 1.8924778-2.7965726 1.8924778-4.5829194v-20.0119274c0-.0426693-.0080531-.0853387-.0126548-.1280081-.1334514-2.8219435-2.4619469-5.0822661-5.3104425-5.0822661-1.2102655 0-2.3250442.4128549-3.2200885 1.0944113-.9284071-1.5672339-2.6287611-2.6224355-4.5753097-2.6224355-1.1838053 0-2.2709735.39325-3.1556637 1.0482823-.9226549-1.6721774-2.6759293-2.8300161-4.6397346-2.8300161-.8835398 0-1.7222124.2375645-2.4676991.6481129v-12.7685162c0-2.941879-2.3883186-5.337129-5.3230973-5.337129-2.9382301 0-5.3276991 2.39525-5.3276991 5.337129v27.7339274c0 .8199436-.6741593 1.4876613-1.5047788 1.4876613-.4095575 0-.790354-.163758-1.0710619-.4589838-.0057523-.0057662-.010354-.0092258-.0149558-.014992-.0069027-.0046129-.0138053-.0126855-.0172566-.0196048l-4.3751328-4.3084516c-2.0719469-2.0792661-5.4519469-2.0815726-7.5284956 0-2.0788495 2.0827258-2.0788495 5.46975 0 7.5490161l14.8809735 14.9192823c-.3807965.7023145-.5993805 1.5049596-.5993805 2.3583467 0 2.7366049 2.2203539 4.9623307 4.9503539 4.9623307h24.5136284c2.7288495 0 4.9515044-2.2257258 4.9515044-4.9623307 0-1.6502661-.8087611-3.1079435-2.0454867-4.0109193z"/><path d="m80.1024336 32.4602757v19.8816129c0 2.002-1.6244248 3.6315081-3.6238938 3.6315081 0 0-.0023009 0-.0069026 0h-22.8236284c-.8386725 0-1.6301769.2133468-2.3238938.5858387l-14.8890265-14.9262016c-.9629204-.9629436-.9629204-2.5324839 0-3.4988871.9640708-.96525 2.529823-.96525 3.4984956.0080726l4.3820354 4.3188306c.0046017.0046129.0126548.0080726.0138053.0115323.8133628.8280161 1.9338938 1.3019919 3.0935398 1.3019919 2.4021239 0 4.360177-1.9466451 4.3624779-4.3453548 0-.0023065 0-.0023065 0-.0057662v-27.7339274c0-1.3631129 1.110177-2.4725161 2.47-2.4725161s2.4676991 1.1094032 2.4676991 2.4725161v20.8641613c0 .7911129.6384956 1.4323065 1.4265487 1.4323065s1.4288495-.6411936 1.4288495-1.4323065v-3.2774677c0-1.409242 1.1297345-2.6005242 2.4676991-2.6005242s2.4676992 1.1912822 2.4676992 2.6005242v4.4260806c0 .7911129.6419469 1.4323065 1.4288495 1.4323065.790354 0 1.43-.6411936 1.43-1.4323065v-2.7700484c0-1.3665725 1.1067257-2.4748225 2.4688496-2.4748225 1.3609734 0 2.4665486 1.10825 2.4665486 2.4748225v1.5211049.0069193.0023065 2.8969032c0 .7899597.6407965 1.4311532 1.4288496 1.4311532.7892035 0 1.43-.6411935 1.43-1.4311532v-2.906129c.0034513-1.3608065 1.1090265-2.4690565 2.47-2.4690565 1.359823 0 2.4653982 1.1117097 2.4653982 2.4759758" opacity=".403306"/><path d="m50.3094248 4.10706605c.2093805.58122581.759292.94333871 1.3425664.94333871.1599115 0 .3255752-.02767742.4877876-.08764516.7420354-.26985484 1.1239823-1.09095161.8559292-1.83478226l-.7938053-2.1853629c-.2715045-.74267742-1.0929204-1.12670162-1.8326549-.85569355-.7420354.26985484-1.1239823 1.09210484-.8547788 1.83593548z"/><path d="m44.9403097 7.04894508 2.0086726 1.16360484c.2266372.13031452.470531.19258871.7132743.19258871.4946903 0 .9755753-.25716935 1.2378761-.71730645.3957523-.6838629.1622124-1.56146774-.5223008-1.95587097l-2.0075222-1.16360484c-.6856637-.39555645-1.5588495-.16145161-1.9546017.52471775-.3934514.68501612-.1587611 1.56031451.5246017 1.95587096"/><path d="m44.4743805 13.9452354c.0816814 0 .1656637-.0057661.249646-.0219113l2.2847788-.403629c.7753982-.1360807 1.2965487-.8787581 1.1573451-1.6583387-.1357522-.7795807-.8777876-1.301992-1.6531858-1.1624516l-2.2847788.403629c-.7776991.1372339-1.2953982.8787581-1.159646 1.6594919.1219469.694242.7247788 1.1832097 1.4058407 1.1832097"/><path d="m60.3401327 11.8613564c-.1380531.7795806.3819469 1.522258 1.1596461 1.6583387l2.2847787.403629c.0839823.0161452.1656637.0219113.2484956.0219113.6810619 0 1.2827434-.4889677 1.4046903-1.1832097.1369026-.7807338-.3819469-1.522258-1.1584956-1.6594919l-2.2847788-.403629c-.7765486-.1372339-1.5174336.3828709-1.6543363 1.1624516"/><path d="m60.845177 8.40513863c.2415929 0 .4877876-.06227419.7121239-.19258871l2.0086726-1.16245161c.6845132-.39555645.918053-1.27200807.5246017-1.95702419-.3946017-.68616936-1.2666371-.9202742-1.9534513-.52471775l-2.0075221 1.16245162c-.6856637.39555645-.9180531 1.27085483-.5246018 1.95702419.2669027.45898387.7454867.71730645 1.240177.71730645"/><path d="m56.3676549 4.9627596c.1610619.05996774.3267256.08764516.4900885.08764516.5809734 0 1.1297345-.36095968 1.3425663-.94218548l.7926549-2.18536291c.270354-.74383064-.1115929-1.56492742-.8547788-1.83593548-.7420354-.27100807-1.56.11301613-1.8303539.85569355l-.7926549 2.1853629c-.2715044.74383065.1115929 1.56492742.8524779 1.83478226"/><path d="m53.5306637 66.7698967c-.7880531 0-1.4288495.6423468-1.4288495 1.4334597v72.6682176c0 .791113.6407964 1.432307 1.4288495 1.432307.790354 0 1.43-.641194 1.43-1.432307v-72.6682176c0-.7911129-.639646-1.4334597-1.43-1.4334597"/><path d="m78.2812832 66.7698967c-.7892036 0-1.4276991.6423468-1.4276991 1.4334597v72.6682176c0 .791113.6384955 1.432307 1.4276991 1.432307.790354 0 1.4288495-.641194 1.4288495-1.432307v-72.6682176c0-.7911129-.6384955-1.4334597-1.4288495-1.4334597"/><path d="m41.974469 95.8185015h-22.6510619c-1.0089381 0-1.8257522-.82225-1.8257522-1.8324758 0-1.0067661.8168141-1.8301693 1.8257522-1.8301693h22.6510619c1.0054868 0 1.8269027.8234032 1.8269027 1.8301693 0 1.0102258-.8214159 1.8324758-1.8269027 1.8324758zm-38.48460174-19.744379c-.84557522-.8487742-.84557522-2.2326452 0-3.0802661.84557522-.847621 2.22610619-.847621 3.07973451.0080726l4.05070793 3.9901612c.0069027.0069194.0138053.0115323.0195576.0184517.7673451.7795806 1.8303539 1.2270322 2.9267256 1.2270322 2.2824779 0 4.1404425-1.8520806 4.1404425-4.1285484v-25.6315967c0-1.2016613.9755752-2.1784436 2.1731858-2.1784436 1.1987611 0 2.1720354.9767823 2.1720354 2.1784436v16.2466451.0046129.0023065 3.0260645c0 .7899597.6396461 1.4323064 1.4276992 1.4323064.7903539 0 1.4311504-.6423467 1.4311504-1.4323064v-3.0329839c.0011504-1.240871.9962832-2.2903064 2.170885-2.2903064 1.1769026 0 2.1708849 1.0517419 2.1708849 2.2949193v1.5245645.0057662.0034596 2.5601613c0 .7899597.6430974 1.4323065 1.4288496 1.4323065.7903539 0 1.4288495-.6423468 1.4288495-1.4323065v-2.5693871c.0046018-1.1982016.9778761-2.1715242 2.1731859-2.1715242 1.1964601 0 2.1720354.9767823 2.1720354 2.1772904v4.0904919c0 .7945726.639646 1.4311532 1.4288495 1.4311532.7915044 0 1.4288496-.6365806 1.4288496-1.4311532v-2.6950887c.0115044-1.1924355.9790265-2.1599919 2.1708849-2.1599919 1.1987611 0 2.1766372.975629 2.1766372 2.1772903v18.3720403c0 1.7898065-1.4530089 3.2486371-3.2407965 3.2486371h-21.0968141c-.769646 0-1.489823.189129-2.129469.5189516zm41.32734514 14.1915968c1.0492035-1.1001774 1.7026549-2.5843791 1.7026549-4.2219597v-18.4896694c0-.0403629-.0092036-.0807258-.0161062-.1199354-.1219469-2.670871-2.321593-4.805492-5.0193806-4.805492-1.0963717 0-2.1122124.3586533-2.9382301.9594839-.8927433-1.4207742-2.4665486-2.3710323-4.2623893-2.3710323-1.071062 0-2.0650443.3402017-2.8841593.919121-.8858407-1.5211048-2.5045133-2.5659274-4.3176106-2.5659274-.7742478 0-1.5093806.1972016-2.170885.5316371v-11.6245161c0-2.7792742-2.2548673-5.0430565-5.030885-5.0430565-2.7748672 0-5.0297345 2.2637823-5.0297345 5.0430565v25.6315967c0 .6953952-.5775221 1.2627823-1.2838938 1.2627823-.3474336 0-.6718584-.1383871-.9123009-.3897903-.0057522-.0069194-.0138053-.0115323-.0195575-.0172984-.0057522-.0069194-.0080531-.0126855-.0115044-.0138387l-4.04150444-3.9820887c-1.96035398-1.96625-5.15168141-1.96625-7.11318584 0-1.95805309 1.9674032-1.95805309 5.1641451 0 7.1292419l13.69946898 13.7314597c-.3370796.6481129-.5292035 1.3781048-.5292035 2.1565322 0 2.5901452 2.100708 4.6970887 4.6846018 4.6970887h22.6510619c2.5827434 0 4.6846018-2.1069435 4.6846018-4.6970887 0-1.5153387-.7224779-2.8611532-1.8418584-3.7203064z"/><path d="m43.6610177 67.6717193v18.3720403c0 1.7898065-1.4530089 3.2486371-3.2407965 3.2486371h-21.0968141c-.769646 0-1.489823.189129-2.129469.5189516l-13.70407084-13.7372258c-.84557522-.8487742-.84557522-2.2326452 0-3.0802661.84557522-.847621 2.22610619-.847621 3.07973451.0080726l4.05070793 3.9901612c.0069027.0069194.0138053.0138388.0195576.0184517.7673451.7795806 1.8303539 1.2270322 2.9267256 1.2270322 2.2824779 0 4.1404425-1.8520806 4.1404425-4.1285484v-25.6315967c0-1.2005081.9755752-2.1772904 2.1731858-2.1772904 1.1987611 0 2.1720354.9767823 2.1720354 2.1772904v16.2466451.0046129.0034597 3.0249113c0 .7899597.6396461 1.4323064 1.4276992 1.4323064.7903539 0 1.4311504-.6423467 1.4311504-1.4323064v-3.0329839c.0011504-1.240871.9962832-2.2903064 2.170885-2.2903064 1.1769026 0 2.1708849 1.0517419 2.1708849 2.2949193v1.5245645.0057662.0034596 2.5601613c0 .7899597.6430974 1.4323065 1.4288496 1.4323065.7903539 0 1.4288495-.6423468 1.4288495-1.4323065v-2.5693871c.0046018-1.1982016.9778761-2.1703709 2.1731859-2.1703709 1.1964601 0 2.1720354.975629 2.1720354 2.1761371v4.0916451c0 .7934194.639646 1.4311533 1.4288495 1.4311533.7915044 0 1.4288496-.6377339 1.4288496-1.4311533v-2.6962419c.0115044-1.1924355.9790265-2.1599919 2.1708849-2.1599919 1.1987611 0 2.1766372.975629 2.1766372 2.1772903" opacity=".403306"/><path d="m19.2129646 99.2712596c-.790354 0-1.43.6411935-1.43 1.4334594v40.166855c0 .791113.639646 1.432307 1.43 1.432307.7880531 0 1.4288496-.641194 1.4288496-1.432307v-40.166855c0-.7922659-.6396461-1.4334594-1.4288496-1.4334594"/><path d="m42.0837611 99.2712596c-.7869027 0-1.4288496.6411935-1.4288496 1.4334594v40.166855c0 .791113.6419469 1.432307 1.4288496 1.432307.7903539 0 1.4288495-.641194 1.4288495-1.432307v-40.166855c0-.7922659-.6384956-1.4334594-1.4288495-1.4334594"/><path d="m124.244912 95.8185015h-22.651062c-1.005487 0-1.8269031-.82225-1.8269031-1.8324758 0-1.0067661.8214161-1.8301693 1.8269031-1.8301693h22.653362c1.006638 0 1.825753.8234032 1.825753 1.8301693-.001151 1.0102258-.819115 1.8324758-1.828053 1.8324758zm-38.4846023-19.744379c-.8455752-.8487742-.8455752-2.2326452 0-3.0802661.4118584-.4105484.9583186-.6388871 1.5392921-.6388871.5786725 0 1.1251327.2283387 1.5404424.6469597l4.050708 3.9901612c.0057522.0069194.0138053.0092259.0195575.0184517.7684956.7795806 1.8326549 1.2270322 2.9255753 1.2270322 2.2847787 0 4.1427433-1.8520806 4.1427433-4.1285484 0-.0034596 0-.0034596 0-.0034596v-25.6281371c0-1.2016613.9744247-2.1784436 2.1720357-2.1784436 1.19646 0 2.172035.9767823 2.172035 2.1784436v19.279629c0 .7899597.640797 1.4323064 1.42885 1.4323064.791504 0 1.43-.6423467 1.43-1.4323064v-3.028371c0-1.2431774.993982-2.2949193 2.170885-2.2949193 1.180354 0 2.174336 1.0517419 2.174336 2.2949193v1.5303307.0046129 2.559008c0 .7899597.640796 1.4323065 1.43 1.4323065.788053 0 1.427699-.6423468 1.427699-1.4323065v-2.5763064c.006903-1.1935887.977876-2.1646049 2.173186-2.1646049 1.19761 0 2.173186.9767823 2.173186 2.1772904v4.0904919c0 .7945726.639646 1.4311532 1.426548 1.4311532.790354 0 1.43-.6365806 1.43-1.4311532v-2.7008548c.011505-1.1889758.980177-2.1542258 2.173186-2.1542258 1.197611 0 2.169735.975629 2.169735 2.1772903v18.3720403c0 1.7898065-1.453009 3.2486371-3.238496 3.2486371h-21.096814c-.767345 0-1.488673.189129-2.1306195.5189516zm41.3319473 14.1915968c1.046902-1.1001774 1.696902-2.5843791 1.696902-4.2219597v-18.4896694c0-.0403629-.009203-.0807258-.011504-.1199354-.126549-2.670871-2.327345-4.805492-5.01708-4.805492-1.102124 0-2.115663.3586533-2.942832.9594839-.891593-1.4207742-2.466548-2.3710323-4.261239-2.3710323-1.075663 0-2.067345.3402017-2.885309.919121-.886991-1.5211048-2.506814-2.5659274-4.318761-2.5659274-.771947 0-1.50823.1972016-2.170885.5316371v-11.6245161c0-2.7792742-2.258319-5.0430565-5.032036-5.0430565-2.7725661 0-5.0297342 2.2637823-5.0297342 5.0430565v25.6315967c0 .3482742-.1438053.6631049-.3738938.8925968-.2346903.2294919-.5545133.3701855-.91.3701855-.3497346 0-.6695576-.1383871-.91-.3897903-.0069027-.0069194-.0161062-.0115323-.0195576-.0172984-.0034513-.0069194-.0069026-.0126855-.0126548-.0138387l-4.040354-3.9820887c-.9502655-.9525646-2.2111505-1.4784355-3.5548673-1.4784355-1.3425663 0-2.6069026.5258709-3.559469 1.4784355-1.960354 1.9674032-1.960354 5.1641451 0 7.1292419l13.699469 13.7314597c-.3347787.6481129-.5280531 1.3781048-.5280531 2.1565322 0 2.5901452 2.0995576 4.6970887 4.6834518 4.6970887h22.651062c2.582743 0 4.684601-2.1069435 4.686902-4.6970887 0-1.5153387-.724779-2.8611532-1.839557-3.7203064z"/><path d="m125.929159 67.6717193v18.3720403c0 1.7898065-1.451858 3.2486371-3.237345 3.2486371h-21.097964c-.766195 0-1.488673.189129-2.1294695.5189516l-13.7040708-13.7372258c-.8455752-.8487742-.8455752-2.2326452 0-3.0802661.4118584-.4105484.9583186-.6388871 1.5392921-.6388871.5786725 0 1.1251327.2283387 1.5404424.6469597l4.050708 3.9901612c.0057522.0069194.0138053.0092259.0195575.0196049.7684956.7784274 1.8326549 1.225879 2.9255753 1.225879 2.2847787 0 4.1427433-1.8520806 4.1427433-4.1285484 0-.0034596 0-.0034596 0-.0034596v-25.6281371c0-1.2016613.9744247-2.1784436 2.1720357-2.1784436 1.19646 0 2.172035.9767823 2.172035 2.1784436v19.279629c0 .7899597.640797 1.4323064 1.42885 1.4323064.791504 0 1.43-.6423467 1.43-1.4323064v-3.028371c0-1.2431774.993982-2.2949193 2.170885-2.2949193 1.180354 0 2.174336 1.0517419 2.174336 2.2949193v1.5303307.0046129 2.559008c0 .7899597.640796 1.4323065 1.43 1.4323065.788053 0 1.427699-.6423468 1.427699-1.4323065v-2.5763064c.006903-1.1935887.977876-2.1646049 2.173186-2.1646049 1.19761 0 2.173186.9767823 2.173186 2.1772904v4.0904919c0 .7945726.639646 1.4311532 1.426548 1.4311532.790354 0 1.43-.6365806 1.43-1.4311532v-2.7008548c.011505-1.1889758.980177-2.1542258 2.173186-2.1542258 1.197611 0 2.168584.975629 2.168584 2.1772903" opacity=".403306"/><path d="m101.483407 99.2712596c-.789203 0-1.428849.6411935-1.428849 1.4334594v40.166855c0 .791113.639646 1.432307 1.428849 1.432307.790354 0 1.427699-.641194 1.427699-1.432307v-40.166855c0-.7922659-.637345-1.4334594-1.427699-1.4334594"/><path d="m124.356504 99.2712596c-.789203 0-1.428849.6411935-1.428849 1.4334594v40.166855c0 .791113.639646 1.432307 1.428849 1.432307.790354 0 1.4277-.641194 1.4277-1.432307v-40.166855c0-.7922659-.637346-1.4334594-1.4277-1.4334594"/><path d="m20.6418142 140.766631h3.668761v-40.061912h-3.668761z" opacity=".403306"/><path d="m102.911106 140.819679h4.277345v-40.064218h-4.277345z" opacity=".403306"/><path d="m54.9606637 140.766631h4.6443363v-72.7120408h-4.6443363z" opacity=".403306"/></g></g></svg>